<?xml version="1.0" encoding="UTF-8"?>
<svg id="_レイヤー_2" data-name="レイヤー 2" xmlns="http://www.w3.org/2000/svg" viewBox="0 0 643.87 197.21">
  <defs>
    <style>
      .cls-1 {
        fill: #ffffff;
      }

      .cls-2 {
        fill: #ffffff;
      }
    </style>
  </defs>
  <g id="_レイヤー_1-2" data-name="レイヤー 1">
    <g>
      <path class="cls-1" d="M81.03,102.49l19.67-4.18c.68-.15.69-1.12,0-1.27l-19.77-4.34-6.05-37.84c-.08-.51-.81-.55-.91-.04-1.29,6.48-4.63,24.6-6.52,34.91-9.88-2.03-17.19-10.2-18.09-20.29L41.9.35c-.05-.45-.7-.47-.77-.02l-11.4,72.83c-1.11,8.55-6.7,15.87-14.66,19.18l-14.48,6.04c-.74.29-.83.9.02,1.21l13.61,5.2c8.13,3.11,13.72,10.54,14.5,19.26l7.71,67.62c.05.45.7.47.77.02l11.04-65.73c1.29-9.93,8.71-18.13,18.49-20.43l.32-.07,6.55,56.76c.06.55.86.55.92,0l6.51-59.73Z"/>
      <g>
        <path class="cls-2" d="M209.08,56.55c-.29-7.39-.6-14.93-.94-22.62,1.35.23,2.65.43,3.89.6,1.24.17,2.49.25,3.73.25,1.24,0,2.49-.1,3.73-.28,1.25-.18,2.54-.38,3.89-.63-.28,7.69-.54,15.23-.78,22.63-.23,7.4-.33,14.93-.3,22.62l.11,30.04c.03,7.69.18,15.26.46,22.71.29,7.46.6,14.79.93,22-2.38-.22-4.92-.33-7.61-.32-2.7,0-5.24.13-7.62.37.29-7.21.55-14.55.78-22.01.23-7.45.33-15.02.31-22.71l-.06-15.72c-5.6-.1-11.02-.16-16.25-.2-5.24-.04-8.38-.01-13.97,0-5.6.02-7.83.03-13.06.1-5.23.08-10.65.19-16.25.32l.06,15.72c.03,7.69.19,15.26.47,22.71.29,7.45.6,14.79.93,22-2.38-.22-4.92-.33-7.62-.32s-5.24.14-7.62.38c.29-7.22.55-14.56.78-22.01.23-7.45.34-15.02.31-22.71l-.11-30.04c-.03-7.69-.19-15.23-.47-22.62-.28-7.4-.6-14.93-.93-22.62,1.35.23,2.65.43,3.89.6,1.25.17,2.49.25,3.73.25,1.25,0,2.49-.09,3.73-.27,1.25-.18,2.54-.38,3.89-.63-.28,7.69-.55,15.23-.78,22.63-.23,7.4-.33,14.93-.31,22.62l.02,6.11c5.6.1,11.02.19,16.25.29,5.23.1,7.46.18,13.06.16,5.6-.02,8.74-.14,13.97-.27,5.24-.14,10.65-.27,16.25-.41l-.02-6.11c-.03-7.69-.19-15.23-.47-22.62Z"/>
        <path class="cls-2" d="M241.33,40.45c-.01-2.45.85-4.54,2.59-6.3,1.74-1.75,3.83-2.63,6.28-2.64,2.44-.01,4.54.86,6.3,2.59,1.76,1.74,2.64,3.84,2.65,6.29.01,2.44-.86,4.54-2.6,6.3-1.74,1.76-3.83,2.64-6.28,2.65-2.44.01-4.54-.86-6.3-2.6-1.75-1.74-2.64-3.84-2.64-6.28ZM243.99,103.5c-.02-5.24-.13-10.74-.32-16.5-.2-5.77-.6-11.15-1.2-16.16,3.26.57,5.89.85,7.87.85,1.98-.01,4.6-.31,7.86-.9-.57,5.01-.92,10.39-1.08,16.16s-.22,11.27-.2,16.51l.07,18.17c.02,5.24.12,10.74.32,16.5.2,5.77.59,10.98,1.19,15.63-2.68-.22-5.3-.33-7.86-.32-2.56.01-5.18.14-7.86.37.56-4.65.92-9.86,1.08-15.63.15-5.77.22-11.27.2-16.51l-.07-18.17Z"/>
        <path class="cls-2" d="M275.04,94.63c-.02-4.89.84-9.12,2.57-12.68,1.74-3.55,4.14-6.51,7.22-8.85,3.07-2.35,6.62-4.1,10.64-5.28,4.01-1.18,8.29-1.78,12.83-1.79,2.21,0,4.34.04,6.38.15,2.03.11,4.63.27,7.77.49,2.68.22,5.07.39,7.16.5,2.1.11,3.79.16,5.07.16,6.52-.03,11.23-.33,14.15-.92-.12.59-.2,1.2-.26,1.84s-.08,1.25-.08,1.83c0,.59.03,1.2.1,1.83.06.64.15,1.25.27,1.84-3.38-.22-6.67-.47-9.87-.75-3.21-.28-6.38-.47-9.53-.58l-.35.35c3.61,1.96,6.54,5.01,8.77,9.14,2.23,4.13,3.35,8.4,3.36,12.83.03,8.73-2.89,15.58-8.75,20.55-5.86,4.97-13.75,7.48-23.64,7.51-1.63,0-3.23-.05-4.81-.16-1.57-.11-3.17-.16-4.8-.15-2.1,0-4.04.77-5.85,2.29-1.8,1.52-2.7,3.44-2.69,5.77.01,3.03.75,5.24,2.21,6.63,1.46,1.39,4.17,2.14,8.13,2.24,3.26.11,6.46.19,9.61.23s6.35.12,9.61.23c5.36.1,9.93.72,13.72,1.87,3.79,1.15,6.88,2.71,9.27,4.69,2.39,1.97,4.15,4.24,5.27,6.79,1.12,2.55,1.68,5.35,1.69,8.38.02,4.07-.75,8.21-2.31,12.41-1.55,4.2-3.99,7.99-7.3,11.38-3.31,3.39-7.58,6.19-12.81,8.43-5.23,2.23-11.52,3.36-18.85,3.38-11.3.04-20.21-2.17-26.75-6.63-6.54-4.46-9.82-10.59-9.84-18.39-.02-3.03.53-5.83,1.63-8.39,1.1-2.57,2.52-4.85,4.26-6.83,1.74-1.99,3.72-3.56,5.92-4.74,2.21-1.17,4.48-2.05,6.81-2.64v-.35c-3.61-1.04-6.36-2.78-8.23-5.22-1.87-2.44-2.81-5.35-2.83-8.72,0-1.98.36-3.79,1.12-5.42.75-1.63,1.71-3.09,2.87-4.38,1.16-1.28,2.49-2.33,4.01-3.16,1.51-.82,2.96-1.35,4.36-1.59v-.35c-5.37-2.32-9.57-5.59-12.61-9.83-3.04-4.24-4.57-9.56-4.6-15.96ZM337.32,169.16c-.03-6.99-2.08-11.87-6.16-14.65-4.09-2.78-10.85-4.15-20.28-4.11-8.73.03-15.48,1.47-20.25,4.35-4.77,2.87-7.13,8.03-7.1,15.48.02,3.96.69,7.33,2.04,10.12,1.34,2.79,3.16,5.05,5.44,6.8,2.28,1.74,4.99,3.01,8.14,3.82,3.15.8,6.52,1.2,10.13,1.19,3.5-.02,6.93-.49,10.3-1.43,3.37-.95,6.37-2.36,8.98-4.23,2.61-1.87,4.73-4.24,6.35-7.09,1.62-2.86,2.42-6.27,2.41-10.23ZM327.61,93.57c-.03-7.34-1.79-12.92-5.3-16.76-3.51-3.83-8.12-5.74-13.82-5.71-6.29.02-11.17,2.17-14.65,6.43-3.48,4.27-5.21,9.95-5.18,17.05.03,7.34,1.65,13.13,4.87,17.36,3.22,4.24,8.2,6.35,14.96,6.32,3.37-.01,6.26-.69,8.64-2.04,2.38-1.34,4.36-3.16,5.92-5.43,1.56-2.28,2.72-4.9,3.46-7.88s1.12-6.08,1.1-9.34Z"/>
        <path class="cls-2" d="M363.44,59.04c-.07-4.65-.18-9.25-.31-13.8s-.29-8.88-.48-13.02c-.19-4.13-.41-7.65-.65-10.57,3.26.57,5.88.85,7.87.85,1.97,0,4.6-.31,7.86-.9-.22,2.92-.41,6.41-.58,10.49-.16,4.08-.29,8.36-.39,12.84-.1,4.48-.18,9-.21,13.54-.05,4.54-.06,8.73-.05,12.58l.05,13.28h.35c3.25-5.02,7.13-8.91,11.67-11.66,4.53-2.75,9.94-4.14,16.23-4.17,3.26-.01,6.55.44,9.87,1.36,3.32.92,6.32,2.51,9.01,4.77,2.69,2.26,4.88,5.34,6.58,9.24,1.7,3.89,2.56,8.87,2.58,14.92.02,5.01-.08,10.16-.29,15.46-.22,5.3-.31,10.92-.29,16.86l.04,11.36c0,1.86.04,3.7.11,5.5.06,1.81.16,3.52.28,5.15-2.33-.22-4.78-.33-7.34-.32-2.44.01-4.84.14-7.16.37.21-6.05.45-12.28.72-18.68.27-6.41.39-12.99.37-19.74l-.04-10.66c-.03-8.73-1.75-15.33-5.13-19.81-3.4-4.47-8.06-6.69-14-6.67-8.15.03-14.12,2.55-17.88,7.57-3.77,5.02-5.63,12.07-5.6,21.15.01,3.27.05,7.05.13,11.36.07,4.31.18,8.64.31,13.01.13,4.37.29,8.59.48,12.67.19,4.08.4,7.4.65,9.95-2.68-.22-5.3-.33-7.86-.32-2.56.01-5.18.14-7.87.37.22-2.67.42-6.05.58-10.13.16-4.07.29-8.39.39-12.92.1-4.54.17-9.14.21-13.8.04-4.66.06-8.97.04-12.93l-.11-31.62c-.02-3.96-.06-8.27-.14-12.92Z"/>
        <path class="cls-2" d="M453.94,58.72c-.08-4.65-.18-9.25-.31-13.79-.13-4.54-.29-8.88-.48-13.02-.19-4.13-.41-7.65-.65-10.57,3.26.57,5.88.85,7.87.85,1.98-.01,4.6-.31,7.86-.9-.23,2.91-.41,6.44-.58,10.57-.16,4.13-.29,8.47-.39,13.02s-.17,9.14-.21,13.8c-.04,4.66-.06,8.97-.04,12.93l.11,31.62c.02,3.96.06,8.27.13,12.92.08,4.66.18,9.26.31,13.8.13,4.54.29,8.85.48,12.92.19,4.08.4,7.45.65,10.12-2.68-.22-5.3-.33-7.86-.32-2.56.01-5.18.13-7.86.37.22-2.67.41-6.05.58-10.13.16-4.07.29-8.39.39-12.92.1-4.55.17-9.15.21-13.81.05-4.65.06-8.97.05-12.92l-.11-31.62c-.02-3.96-.06-8.27-.14-12.93Z"/>
        <path class="cls-2" d="M487.72,39.56c-.01-2.45.86-4.54,2.6-6.3,1.74-1.75,3.83-2.63,6.28-2.64,2.45-.01,4.54.86,6.3,2.6,1.75,1.74,2.64,3.83,2.65,6.28,0,2.44-.86,4.54-2.61,6.3-1.74,1.75-3.83,2.63-6.28,2.64-2.45.01-4.54-.86-6.3-2.6-1.75-1.74-2.63-3.84-2.64-6.28ZM490.39,102.61c-.02-5.24-.13-10.74-.32-16.51-.19-5.77-.6-11.15-1.19-16.15,3.26.57,5.88.85,7.87.84,1.98,0,4.59-.31,7.86-.9-.57,5.01-.92,10.39-1.08,16.16-.15,5.77-.22,11.27-.2,16.51l.07,18.17c.02,5.24.13,10.74.32,16.5.2,5.77.59,10.98,1.19,15.63-2.68-.22-5.3-.33-7.86-.32s-5.18.14-7.86.38c.57-4.65.93-9.87,1.08-15.64.16-5.76.22-11.26.21-16.5l-.07-18.17Z"/>
        <path class="cls-2" d="M544.29,46.35c-.33,4.43-.58,8.77-.74,13.02-.16,4.25-.35,8.53-.57,12.84,1.28,0,3.67-.04,7.16-.11,3.49-.07,7.27-.23,11.35-.48-.12.35-.17.99-.17,1.92v1.75s.02,1.92.02,1.92c0,.82.06,1.4.18,1.75-1.51-.11-3.08-.19-4.72-.24-1.63-.06-3.38-.08-5.24-.08l-8.56.03c-.11.47-.25,2.33-.41,5.59-.17,3.27-.3,7.14-.4,11.62-.1,4.49-.17,9.17-.21,14.07-.04,4.89-.05,9.26-.04,13.1.02,3.26.11,6.46.3,9.61.19,3.15.75,5.96,1.69,8.47.94,2.5,2.34,4.5,4.21,6.01,1.87,1.51,4.55,2.26,8.04,2.24.93,0,2.19-.12,3.76-.36,1.58-.24,2.94-.54,4.1-.89l.02,4.19c-1.98.35-4.17.8-6.55,1.33-2.39.53-4.69.8-6.9.81-7.34.03-12.76-1.76-16.27-5.35-3.5-3.6-5.27-8.9-5.3-15.88-.01-3.15.04-6.55.14-10.22.1-3.67.24-7.69.39-12.06.16-4.37.29-9.2.39-14.5.09-5.3.13-11.21.11-17.74l-5.59.02c-.93,0-1.92.04-2.97.1-1.05.06-2.16.16-3.32.27.11-.7.2-1.36.26-2,.06-.64.08-1.32.08-2.01,0-.59-.04-1.16-.1-1.74-.07-.59-.15-1.17-.27-1.75,5.24.33,9.09.48,11.53.48-.13-2.33-.22-5.24-.29-8.73-.08-3.49-.23-7.1-.47-10.83l14.47-6.16h.87Z"/>
        <path class="cls-2" d="M566.54,113.88c-.05-14.33,3.37-25.58,10.26-33.75,6.89-8.18,16.96-12.29,30.22-12.33,6.27-.03,11.68.92,16.25,2.82,4.56,1.91,8.38,4.46,11.47,7.65,3.08,3.19,5.37,6.94,6.87,11.24,1.49,4.3,2.25,8.9,2.27,13.79,0,1.17-.02,2.3-.08,3.41s-.14,2.24-.25,3.41c-6.39-.1-12.72-.19-18.99-.29-6.27-.09-12.6-.13-18.99-.11-3.91.02-7.78.09-11.63.21-3.85.14-7.72.26-11.62.39-.12.58-.17,1.45-.17,2.62v2.27c.03,4.54.72,8.79,2.1,12.74,1.37,3.96,3.37,7.36,5.98,10.2,2.61,2.84,5.82,5.1,9.61,6.78,3.79,1.68,8.17,2.5,13.14,2.49,2.36-.01,4.78-.34,7.27-.99,2.48-.65,4.9-1.53,7.27-2.65,2.36-1.12,4.57-2.43,6.64-3.95,2.06-1.52,3.86-3.16,5.4-4.91l.89.53-1.03,8.56c-3.54,2.81-7.94,5.22-13.2,7.21s-10.72,3-16.41,3.02c-6.38.02-12.22-.92-17.49-2.82-5.27-1.89-9.84-4.67-13.69-8.33-3.86-3.66-6.83-7.98-8.92-12.98-2.09-5-3.14-10.42-3.16-16.24ZM607.38,73.38c-4.38.02-8.07,1.02-11.08,3.01-3.01,1.99-5.49,4.47-7.43,7.45-1.94,2.98-3.41,6.25-4.4,9.79-.99,3.56-1.61,6.91-1.83,10.06,3.66.1,7.48.2,11.45.31,3.96.1,7.84.15,11.62.14,3.9-.02,7.87-.09,11.89-.22,4.02-.13,7.92-.26,11.71-.39-.01-3.15-.29-6.46-.84-9.95-.54-3.49-1.62-6.75-3.23-9.77-1.61-3.02-3.83-5.51-6.68-7.49-2.85-1.97-6.58-2.95-11.19-2.93Z"/>
      </g>
    </g>
  </g>
</svg>